Land_normalized_Motion_pl05
version=1
nRows=14
nColumns=43
inDegrees=yes
endheader
time		pelvis_tilt		pelvis_list		pelvis_rotation		pelvis_tx		pelvis_ty		pelvis_tz		hip_flexion_r		hip_adduction_r		hip_rotation_r		knee_angle_r		ankle_angle_r		subtalar_angle_r		mtp_angle_r		hip_flexion_l		hip_adduction_l		hip_rotation_l		knee_angle_l		ankle_angle_l		subtalar_angle_l		mtp_angle_l		lumbar_extension		lumbar_bending		lumbar_rotation		neck_flexion		neck_lateral_bending		neck_rotation		arm_flex_r		arm_add_r		arm_rot_r		elbow_flex_r		pro_sup_r		wrist_flex_r		wrist_dev_r		hand_finger_flex_r		arm_flex_l		arm_add_l		arm_rot_l		elbow_flex_l		pro_sup_l		wrist_flex_l		wrist_dev_l		hand_finger_flex_l		
1.412500		1.306295		-0.179016		83.849653		-0.005909		1.044701		0.599563		32.378661		-0.616155		-5.279499		-30.369488		-24.426864		6.234352		8.506632		28.846476		-10.671525		-15.494094		-30.719369		-24.871481		9.767773		26.359393		-28.350400		2.247749		1.635160		-34.546540		-7.915802		5.113557		-71.174218		-16.997020		-27.924037		87.686460		141.093868		1.909655		-1.574120		-30.350960		-74.334979		-12.262012		-34.583781		80.762411		126.346577		-7.397587		-11.415480		21.707184		
1.415808		1.316573		0.096492		83.840907		-0.006346		1.030122		0.593841		32.653547		-0.642107		-5.072309		-31.737481		-24.570923		5.953593		8.484066		29.060326		-10.743198		-15.113729		-31.882936		-25.063922		9.828407		26.369458		-28.572138		2.241468		1.578248		-34.595159		-7.981535		5.247149		-71.383241		-16.503884		-28.563420		87.966343		140.923072		1.567372		-1.761553		-30.374405		-74.343509		-11.495466		-35.652742		80.823863		125.677094		-7.547931		-11.563962		21.823374		
1.419116		1.318314		0.299613		83.857325		-0.006529		1.015280		0.588355		33.067440		-0.635485		-4.826271		-33.161511		-24.810065		5.627851		8.402002		29.402726		-10.817001		-14.653212		-33.011478		-25.428183		9.905457		26.378030		-28.750257		2.206696		1.469067		-34.546294		-8.017214		5.388209		-71.453328		-16.052293		-29.126582		88.219748		140.777069		1.194460		-2.033053		-30.338122		-74.252385		-10.770428		-36.768806		80.808398		124.801116		-7.621620		-11.789263		22.075623		
1.422424		1.276855		0.465520		83.871757		-0.006856		1.000312		0.583033		33.579594		-0.664029		-4.539045		-34.625872		-25.101449		5.312628		8.339658		29.821974		-10.824816		-14.165879		-34.044153		-26.138002		9.984632		26.387121		-28.936892		2.136052		1.350844		-34.377721		-8.037020		5.453845		-71.370842		-15.682604		-29.625229		88.361386		140.784157		0.790774		-2.258009		-30.248402		-74.021950		-10.106540		-37.801091		80.738267		123.859049		-7.743897		-12.006039		22.438311		
1.425732		1.227867		0.754148		83.835874		-0.007202		0.985524		0.577663		33.972892		-0.721482		-4.323928		-36.074567		-25.190240		5.147092		8.465455		30.084731		-10.813950		-13.716218		-35.013277		-26.461262		10.069066		26.411059		-29.236213		2.044238		1.327620		-34.446224		-8.045893		5.468266		-71.244640		-15.373998		-30.060222		88.562102		140.830517		0.474034		-2.346096		-30.222958		-73.715770		-9.664377		-38.616531		80.728114		123.317246		-7.998903		-12.087752		22.617402		
1.429040		1.131799		0.880712		83.852441		-0.007337		0.970314		0.572648		34.610726		-0.763856		-4.004963		-37.631385		-24.760405		4.795502		8.894785		30.580422		-10.724800		-13.093533		-35.960661		-26.442229		10.170846		26.478550		-29.413111		1.902452		1.207773		-34.210834		-8.028471		5.455975		-70.936785		-15.058105		-30.431405		88.694390		140.984794		0.097581		-2.519444		-30.123165		-73.283244		-9.194592		-39.526306		80.616773		122.564596		-8.312361		-12.230083		22.980498		
1.432348		0.991031		0.701817		83.954643		-0.007633		0.954432		0.567665		35.659318		-0.907679		-3.795160		-39.419175		-23.689454		4.758481		10.792564		31.463348		-10.561308		-12.270334		-37.124007		-24.694026		10.888220		26.794316		-29.207995		1.783553		0.994362		-34.212795		-7.938914		5.548034		-70.554752		-14.835108		-30.726023		88.707127		141.423161		-0.424713		-2.771260		-29.737483		-72.827515		-8.901163		-40.195406		80.369983		121.669416		-8.972105		-12.475108		24.055035		
1.435657		0.925321		0.926786		83.964172		-0.007694		0.939458		0.562847		36.161410		-0.882305		-3.502317		-41.257268		-21.056003		4.204350		11.940751		31.826785		-10.440260		-11.573706		-38.345711		-22.182775		11.123365		26.988872		-29.576881		1.649602		0.975921		-33.799103		-7.926620		5.398945		-69.990202		-14.645247		-30.931004		88.719209		141.508029		-0.643866		-2.756534		-29.637037		-72.096183		-8.677980		-40.894621		80.212287		121.428362		-9.470688		-12.433969		24.395057		
1.438965		0.789982		0.977563		84.063354		-0.008010		0.924030		0.558041		36.892872		-1.031662		-3.370178		-43.397833		-17.362528		4.299522		13.827574		32.346861		-10.194964		-10.768134		-39.912192		-16.855568		12.340362		27.386817		-29.713342		1.502926		0.757022		-33.513313		-7.826176		5.409139		-69.310489		-14.641350		-31.025135		88.647794		141.714254		-0.917193		-2.824291		-29.453366		-71.396655		-8.551912		-41.415297		79.972315		121.246986		-10.063682		-12.514993		25.228507		
1.442273		0.641893		1.152933		84.150104		-0.008282		0.908893		0.553439		37.423371		-1.133501		-3.191447		-45.654164		-12.584087		4.038769		14.892096		32.725076		-9.905757		-10.048422		-41.744010		-10.870923		13.024831		27.670499		-30.036213		1.324747		0.612442		-33.088930		-7.769871		5.352029		-68.553809		-14.682928		-31.027363		88.570203		141.848504		-1.050407		-2.840866		-29.391990		-70.558014		-8.505522		-41.946945		79.813949		121.158474		-10.487165		-12.525418		25.767540		
1.445581		0.551105		1.310909		84.213237		-0.008311		0.893833		0.549022		37.892475		-1.148166		-3.123116		-48.025194		-6.717652		4.187409		14.462498		33.067159		-9.729057		-9.456531		-43.795905		-4.021382		14.300554		27.821122		-30.390322		1.173019		0.419814		-32.618214		-7.676406		5.318947		-67.573782		-14.738248		-31.038763		88.474339		142.000082		-1.118452		-2.814434		-29.441285		-69.584062		-8.426408		-42.493873		79.551291		121.144013		-10.896318		-12.498068		26.416805		
1.448889		0.418430		1.509739		84.271319		-0.008447		0.878940		0.544915		38.320595		-1.177799		-3.014297		-50.501534		-0.156733		4.520643		10.933383		33.547092		-9.518343		-8.928057		-46.307193		2.677145		15.446854		27.631495		-30.830809		0.976776		0.235396		-32.078705		-7.610838		5.302524		-66.507475		-14.884392		-30.966823		88.391201		142.175868		-1.035087		-2.798782		-29.653552		-68.516572		-8.405813		-42.999223		79.372318		121.148002		-11.361689		-12.459310		27.251666		
1.452197		0.194610		1.526739		84.393985		-0.008748		0.864151		0.541332		39.040019		-1.274129		-2.863914		-53.080323		6.187303		4.760409		5.706778		34.459642		-9.145923		-8.329889		-49.128694		8.670902		15.682144		27.091013		-31.140957		0.741940		-0.000111		-31.504228		-7.574069		5.372140		-65.253137		-15.039373		-30.831557		88.175878		142.327332		-0.804621		-2.779199		-30.022947		-67.257386		-8.440929		-43.527230		79.151266		121.087640		-11.592685		-12.335840		27.466594		
1.455505		-0.018080		1.584513		84.453087		-0.008932		0.849828		0.538614		39.967347		-1.184162		-2.466870		-55.779837		10.879388		3.916316		3.920156		35.730585		-8.751774		-7.653494		-52.397147		12.946841		14.622864		26.880757		-31.677367		0.472707		-0.184475		-30.523862		-7.471316		5.265888		-63.786034		-15.236132		-30.632506		87.983673		142.405051		-0.652556		-2.766450		-30.190579		-65.845079		-8.622472		-43.900097		78.922903		121.018556		-11.693428		-12.200322		27.308252		
